<svg xmlns="http://www.w3.org/2000/svg" xmlns:xlink="http://www.w3.org/1999/xlink" width="183" zoomAndPan="magnify" viewBox="0 0 137.25 173.249997" height="231" preserveAspectRatio="xMidYMid meet" version="1.0"><defs><clipPath id="639ecfc7be"><path d="M 0 0.0976562 L 136.503906 0.0976562 L 136.503906 172.40625 L 0 172.40625 Z M 0 0.0976562 " clip-rule="nonzero"/></clipPath><clipPath id="ad345977e7"><path d="M 10 0.0976562 L 134 0.0976562 L 134 172.210938 L 10 172.210938 Z M 10 0.0976562 " clip-rule="nonzero"/></clipPath><clipPath id="4b29cd4d82"><path d="M 2 8.929688 L 120 8.929688 L 120 172.40625 L 2 172.40625 Z M 2 8.929688 " clip-rule="nonzero"/></clipPath><clipPath id="0ba1639d17"><rect x="0" width="137" y="0" height="173"/></clipPath></defs><g clip-path="url(#639ecfc7be)"><g transform="matrix(1, 0, 0, 1, 0, 0.000000000000003039)"><g clip-path="url(#0ba1639d17)"><g clip-path="url(#ad345977e7)"><path fill="#a8a5a5" d="M 131.847656 15.84375 C 127.425781 9.667969 81.101562 0.148438 78.949219 0.00390625 C 78.878906 -0.00390625 78.804688 -0.00390625 78.726562 -0.00390625 C 72.902344 -0.00390625 59.542969 14.050781 55.546875 18.398438 C 45.875 28.925781 46.246094 31.371094 46.46875 32.828125 C 46.773438 34.777344 47.820312 36.695312 48.929688 38.71875 C 49.792969 40.28125 51.578125 43.53125 50.96875 44.199219 C 49.898438 45.359375 45.34375 49.042969 40.945312 52.601562 C 24.230469 66.117188 18.539062 71.183594 17.808594 74.574219 C 16.839844 79.09375 21.617188 82.386719 26.675781 85.867188 C 28.253906 86.953125 30.714844 88.652344 31.777344 89.722656 C 30.871094 91.269531 28.726562 94.253906 26.941406 96.746094 C 26.050781 97.984375 25.191406 99.210938 24.328125 100.4375 L 39.253906 100.4375 C 41.234375 100.4375 42.839844 102.046875 42.839844 104.027344 C 42.839844 106.007812 41.234375 107.613281 39.253906 107.613281 L 19.445312 107.613281 C 12.84375 117.785156 8.46875 127.050781 10.734375 133.859375 C 11.507812 136.175781 13.566406 138.121094 16.847656 139.625 C 16.996094 139.699219 17.207031 139.746094 17.363281 139.8125 C 18.484375 140.292969 19.738281 140.738281 21.144531 141.140625 C 21.648438 141.285156 22.214844 141.398438 22.75 141.535156 C 23.941406 141.828125 25.183594 142.101562 26.511719 142.332031 C 27.179688 142.445312 27.859375 142.554688 28.546875 142.652344 C 29.832031 142.839844 31.160156 142.992188 32.523438 143.121094 C 33.339844 143.199219 34.144531 143.285156 34.984375 143.335938 C 37.035156 143.472656 39.128906 143.570312 41.253906 143.570312 C 50.8125 143.570312 59.492188 142.171875 65.703125 139.632812 C 67.554688 138.886719 69.636719 139.769531 70.382812 141.59375 C 71.128906 143.429688 70.246094 145.523438 68.425781 146.269531 C 61.363281 149.148438 51.714844 150.738281 41.253906 150.738281 C 37.636719 150.738281 34.167969 150.488281 30.816406 150.128906 L 26.539062 155.925781 C 24.429688 159.296875 24.324219 163.375 26.246094 166.847656 C 28.175781 170.316406 31.691406 172.390625 35.671875 172.390625 L 99.839844 172.175781 C 102.773438 172.175781 105.625 170.949219 107.648438 168.820312 C 109.667969 166.6875 110.738281 163.78125 110.582031 160.769531 L 107.410156 118.375 L 107.410156 116.316406 C 107.910156 115.800781 108.328125 115.105469 108.800781 114.523438 C 98.671875 113.632812 84.847656 110.324219 82.523438 99.019531 C 82.171875 97.339844 81.402344 90.332031 85.980469 70.917969 C 86.433594 68.988281 88.339844 67.761719 90.296875 68.253906 C 92.230469 68.707031 93.417969 70.636719 92.960938 72.574219 C 89.34375 87.898438 89.144531 95.632812 89.539062 97.578125 C 90.957031 104.472656 102.25 107.21875 113.183594 107.585938 C 119.175781 95.480469 121.960938 78.132812 123.78125 66.570312 C 124.363281 62.886719 124.816406 59.960938 125.238281 58.269531 C 125.582031 56.90625 126.085938 55.023438 126.671875 52.828125 C 133.308594 28.214844 134.523438 19.570312 131.847656 15.84375 Z M 89.480469 60.980469 C 89.246094 60.980469 89.007812 60.957031 88.769531 60.910156 L 70.835938 57.320312 C 69.15625 56.984375 67.949219 55.511719 67.949219 53.804688 L 67.949219 46.632812 C 67.949219 44.652344 69.558594 43.042969 71.539062 43.042969 C 73.519531 43.042969 75.125 44.652344 75.125 46.632812 L 75.125 50.863281 L 90.175781 53.878906 C 92.121094 54.265625 93.382812 56.152344 92.996094 58.097656 C 92.644531 59.804688 91.152344 60.980469 89.480469 60.980469 Z M 89.480469 60.980469 " fill-opacity="1" fill-rule="nonzero"/></g><g clip-path="url(#4b29cd4d82)"><path fill="#302d2d" d="M 118.363281 23.867188 C 114.171875 18.007812 70.222656 8.976562 68.179688 8.839844 C 68.113281 8.832031 68.042969 8.832031 67.96875 8.832031 C 62.441406 8.832031 49.769531 22.167969 45.976562 26.292969 C 36.804688 36.277344 37.15625 38.597656 37.367188 39.980469 C 37.652344 41.832031 38.648438 43.648438 39.703125 45.566406 C 40.519531 47.050781 42.214844 50.132812 41.636719 50.765625 C 40.621094 51.871094 36.300781 55.363281 32.128906 58.738281 C 16.269531 71.5625 10.871094 76.367188 10.175781 79.585938 C 9.257812 83.875 13.789062 86.996094 18.589844 90.300781 C 20.085938 91.328125 22.421875 92.941406 23.429688 93.953125 C 22.570312 95.425781 20.535156 98.253906 18.839844 100.617188 C 17.996094 101.792969 17.179688 102.957031 16.363281 104.121094 L 30.519531 104.121094 C 32.398438 104.121094 33.925781 105.648438 33.925781 107.527344 C 33.925781 109.40625 32.398438 110.929688 30.519531 110.929688 L 11.730469 110.929688 C 5.46875 120.582031 1.316406 129.367188 3.464844 135.828125 C 4.199219 138.023438 6.152344 139.871094 9.265625 141.300781 C 9.40625 141.367188 9.605469 141.414062 9.753906 141.476562 C 10.816406 141.933594 12.007812 142.355469 13.339844 142.734375 C 13.816406 142.871094 14.355469 142.980469 14.867188 143.109375 C 15.996094 143.390625 17.171875 143.648438 18.433594 143.863281 C 19.066406 143.972656 19.710938 144.074219 20.367188 144.171875 C 21.585938 144.347656 22.84375 144.492188 24.136719 144.613281 C 24.914062 144.6875 25.675781 144.769531 26.472656 144.816406 C 28.417969 144.949219 30.40625 145.042969 32.421875 145.042969 C 41.484375 145.042969 49.722656 143.714844 55.617188 141.304688 C 57.371094 140.597656 59.347656 141.433594 60.054688 143.164062 C 60.761719 144.90625 59.925781 146.894531 58.195312 147.601562 C 51.5 150.332031 42.34375 151.84375 32.421875 151.84375 C 28.988281 151.84375 25.695312 151.605469 22.515625 151.261719 L 18.460938 156.761719 C 16.460938 159.960938 16.355469 163.828125 18.179688 167.121094 C 20.011719 170.417969 23.347656 172.382812 27.125 172.382812 L 88 172.179688 C 90.785156 172.179688 93.488281 171.015625 95.40625 168.996094 C 97.324219 166.972656 98.339844 164.214844 98.191406 161.359375 L 95.179688 121.136719 L 95.179688 119.183594 C 95.65625 118.695312 96.054688 118.035156 96.503906 117.484375 C 86.890625 116.640625 73.777344 113.5 71.570312 102.773438 C 71.238281 101.183594 70.507812 94.53125 74.851562 76.113281 C 75.28125 74.285156 77.089844 73.121094 78.949219 73.589844 C 80.78125 74.019531 81.910156 75.847656 81.472656 77.6875 C 78.042969 92.226562 77.851562 99.5625 78.226562 101.40625 C 79.574219 107.949219 90.289062 110.554688 100.660156 110.902344 C 106.34375 99.417969 108.984375 82.960938 110.714844 71.988281 C 111.265625 68.5 111.695312 65.722656 112.09375 64.113281 C 112.421875 62.820312 112.898438 61.039062 113.457031 58.957031 C 119.753906 35.601562 120.902344 27.402344 118.363281 23.867188 Z M 78.171875 66.6875 C 77.949219 66.6875 77.722656 66.667969 77.5 66.621094 L 60.484375 63.214844 C 58.890625 62.898438 57.746094 61.5 57.746094 59.882812 L 57.746094 53.074219 C 57.746094 51.195312 59.269531 49.671875 61.148438 49.671875 C 63.027344 49.671875 64.554688 51.195312 64.554688 53.074219 L 64.554688 57.089844 L 78.832031 59.949219 C 80.675781 60.316406 81.875 62.105469 81.507812 63.953125 C 81.175781 65.570312 79.757812 66.6875 78.171875 66.6875 Z M 78.171875 66.6875 " fill-opacity="1" fill-rule="nonzero"/></g></g></g></g></svg>